<?xml version="1.0" encoding="utf-8"?>
<!-- Generator: Adobe Illustrator 16.0.0, SVG Export Plug-In . SVG Version: 6.00 Build 0)  -->
<!DOCTYPE svg PUBLIC "-//W3C//DTD SVG 1.1//EN" "http://www.w3.org/Graphics/SVG/1.1/DTD/svg11.dtd">
<svg version="1.1" id="Layer_1" xmlns="http://www.w3.org/2000/svg" xmlns:xlink="http://www.w3.org/1999/xlink" x="0px" y="0px"
	 width="150px" height="50px" viewBox="0 0 219.94 68.082" enable-background="new 0 0 219.94 68.082" xml:space="preserve">
<path fill="#FFFFFF" d="M105.555,13.783v7.021h-6.39v14.288c0,2.902,0.056,4.59,0.181,5.064c0.124,0.477,0.396,0.873,0.838,1.191
	c0.431,0.307,0.952,0.465,1.575,0.465c0.873,0,2.12-0.295,3.762-0.895l0.783,7.25c-2.166,0.93-4.611,1.395-7.355,1.395
	c-1.677,0-3.184-0.281-4.532-0.85c-1.348-0.568-2.335-1.303-2.958-2.197c-0.633-0.906-1.066-2.121-1.314-3.662
	c-0.193-1.09-0.294-3.285-0.294-6.605V13.783H105.555L105.555,13.783z"/>
<path fill="#FFFFFF" d="M1.986,13.392h8.567v4.816c3.071-3.705,6.73-5.562,10.98-5.562c2.254,0,4.215,0.463,5.87,1.393
	c1.665,0.929,3.024,2.334,4.079,4.214c1.553-1.88,3.23-3.286,5.02-4.214c1.79-0.93,3.706-1.393,5.745-1.393
	c2.582,0,4.771,0.52,6.572,1.573c1.792,1.055,3.128,2.595,4.011,4.636c0.646,1.495,0.964,3.93,0.964,7.296v22.526h-9.315V28.543
	c0-3.5-0.317-5.757-0.964-6.764c-0.859-1.326-2.197-1.996-3.986-1.996c-1.305,0-2.54,0.397-3.696,1.19
	c-1.144,0.805-1.982,1.972-2.493,3.501c-0.51,1.542-0.757,3.966-0.757,7.286v16.917h-9.316V29.37c0-3.422-0.171-5.644-0.5-6.63
	c-0.329-0.997-0.837-1.743-1.539-2.23c-0.691-0.488-1.644-0.727-2.833-0.727c-1.44,0-2.73,0.387-3.875,1.156
	c-1.155,0.781-1.971,1.893-2.47,3.354s-0.749,3.887-0.749,7.263v17.122H1.986V13.392L1.986,13.392z"/>
<path fill="#FFFFFF" d="M65.439,24.271l-8.43-1.496c0.951-3.444,2.595-5.994,4.918-7.648c2.322-1.654,5.779-2.48,10.356-2.48
	c4.157,0,7.265,0.487,9.304,1.473c2.028,0.986,3.467,2.233,4.295,3.749c0.827,1.52,1.244,4.295,1.244,8.351l-0.134,10.878
	c0,3.094,0.146,5.383,0.441,6.855c0.293,1.473,0.849,3.049,1.667,4.725h-9.248c-0.239-0.611-0.544-1.518-0.896-2.719
	c-0.146-0.555-0.259-0.918-0.329-1.086c-1.583,1.561-3.285,2.729-5.098,3.51c-1.812,0.783-3.738,1.18-5.79,1.18
	c-3.614,0-6.47-0.984-8.554-2.959c-2.085-1.959-3.128-4.453-3.128-7.465c0-1.984,0.477-3.764,1.43-5.327
	c0.95-1.554,2.276-2.754,3.999-3.581c1.711-0.827,4.181-1.551,7.41-2.176c4.352-0.814,7.377-1.586,9.054-2.287v-0.941
	c0-1.812-0.441-3.105-1.325-3.887c-0.896-0.769-2.573-1.156-5.034-1.156c-1.665,0-2.955,0.329-3.884,0.999
	C66.765,21.437,66.017,22.605,65.439,24.271L65.439,24.271z M77.948,31.819c-1.19,0.396-3.082,0.871-5.677,1.424
	c-2.583,0.558-4.283,1.101-5.077,1.624c-1.211,0.869-1.823,1.959-1.823,3.285c0,1.314,0.487,2.436,1.461,3.389
	c0.974,0.951,2.21,1.428,3.717,1.428c1.678,0,3.286-0.557,4.815-1.656c1.122-0.85,1.869-1.869,2.221-3.092
	c0.238-0.795,0.363-2.313,0.363-4.543V31.819L77.948,31.819z"/>
<path fill="#FFFFFF" d="M130.12,37.529l9.314,1.563c-1.189,3.41-3.082,6.006-5.654,7.797c-2.584,1.777-5.814,2.674-9.678,2.674
	c-6.129,0-10.672-2.006-13.607-6.016c-2.324-3.221-3.49-7.277-3.49-12.182c0-5.849,1.53-10.438,4.578-13.745
	c3.047-3.321,6.912-4.974,11.58-4.974c5.234,0,9.371,1.731,12.408,5.2c3.023,3.467,4.475,8.783,4.338,15.944h-23.318
	c0.068,2.765,0.816,4.917,2.256,6.458c1.428,1.541,3.217,2.313,5.348,2.313c1.461,0,2.686-0.398,3.672-1.189
	C128.862,40.576,129.61,39.295,130.12,37.529L130.12,37.529z M130.663,28.078c-0.066-2.707-0.76-4.77-2.084-6.174
	c-1.324-1.417-2.936-2.12-4.836-2.12c-2.031,0-3.707,0.749-5.033,2.233s-1.973,3.513-1.949,6.061H130.663L130.663,28.078z"/>
<polygon fill="#FFFFFF" points="142.923,48.678 152.235,48.678 152.235,0 142.923,0 142.923,48.678 "/>
<polygon fill="#FFFFFF" points="157.194,48.678 166.509,48.678 166.509,0 157.194,0 157.194,48.678 "/>
<path fill="#FFFFFF" d="M171.468,8.634V0h9.314v8.634H171.468L171.468,8.634z M171.468,48.678V13.392h9.314v35.286H171.468
	L171.468,48.678z"/>
<path fill="#FFFFFF" d="M183.567,30.604c0-3.103,0.758-6.106,2.289-9.008c1.529-2.911,3.693-5.121,6.492-6.65
	c2.797-1.53,5.914-2.3,9.371-2.3c5.338,0,9.699,1.731,13.109,5.2c3.41,3.479,5.111,7.853,5.111,13.155
	c0,5.35-1.723,9.778-5.156,13.292c-3.445,3.512-7.773,5.27-12.996,5.27c-3.23,0-6.314-0.736-9.248-2.199
	c-2.924-1.459-5.154-3.604-6.684-6.436C184.325,38.107,183.567,34.662,183.567,30.604L183.567,30.604z M193.153,31.103
	c0,3.5,0.826,6.188,2.48,8.045c1.668,1.869,3.705,2.799,6.141,2.799c2.426,0,4.467-0.93,6.109-2.799
	c1.643-1.857,2.469-4.566,2.469-8.111c0-3.458-0.826-6.121-2.469-7.979c-1.643-1.869-3.684-2.798-6.109-2.798
	c-2.436,0-4.473,0.929-6.141,2.798C193.979,24.917,193.153,27.602,193.153,31.103L193.153,31.103z"/>
<polygon fill-rule="evenodd" clip-rule="evenodd" fill="#D41A1F" points="79.286,1.946 100.13,1.946 100.13,12.223 79.286,1.946 "/>
<polygon fill="#FFFFFF" points="0,67.822 2.244,67.822 2.244,60.566 2.275,60.566 6.724,67.822 9.661,67.822 9.661,57.629 
	7.415,57.629 7.415,64.715 7.386,64.715 3.051,57.629 0,57.629 0,67.822 "/>
<path fill="#FFFFFF" d="M16.424,67.822h2.477l0.85-2.158h3.96l0.877,2.158h2.534l-4.433-10.193h-1.858L16.424,67.822L16.424,67.822z
	 M22.946,63.762h-2.489l1.239-3.168L22.946,63.762L22.946,63.762z"/>
<polygon fill="#FFFFFF" points="36.062,67.822 37.862,67.822 42.066,57.629 39.66,57.629 37.098,64.311 37.069,64.311 
	34.548,57.629 31.986,57.629 36.062,67.822 "/>
<polygon fill="#FFFFFF" points="48.842,67.822 51.09,67.822 51.09,57.629 48.842,57.629 48.842,67.822 "/>
<path fill="#FFFFFF" d="M68.106,61.775h-3.988v2.074h1.831v1.654c-0.418,0.232-1.138,0.506-2.118,0.506
	c-1.915,0-3.168-1.383-3.168-3.285c0-1.898,1.254-3.279,3.168-3.279c1.137,0,1.873,0.328,2.477,0.961l1.583-1.727
	c-1.021-0.949-2.446-1.311-4.059-1.311c-3.182,0-5.501,2.088-5.501,5.355c0,3.271,2.319,5.357,5.501,5.357
	c1.499,0,2.953-0.287,4.276-0.979V61.775L68.106,61.775z"/>
<path fill="#FFFFFF" d="M74.77,67.822h2.477l0.85-2.158h3.96l0.878,2.158h2.536l-4.435-10.193h-1.859L74.77,67.822L74.77,67.822z
	 M81.294,63.762h-2.492l1.238-3.168L81.294,63.762L81.294,63.762z"/>
<polygon fill="#FFFFFF" points="92.881,67.822 95.127,67.822 95.127,59.615 98.035,59.615 98.035,57.629 89.973,57.629 
	89.973,59.615 92.881,59.615 92.881,67.822 "/>
<polygon fill="#FFFFFF" points="104.885,67.822 107.133,67.822 107.133,57.629 104.885,57.629 104.885,67.822 "/>
<polygon fill="#FFFFFF" points="114.919,67.822 117.165,67.822 117.165,60.566 117.194,60.566 121.644,67.822 124.579,67.822 
	124.579,57.629 122.335,57.629 122.335,64.715 122.306,64.715 117.972,57.629 114.919,57.629 114.919,67.822 "/>
<path fill="#FFFFFF" d="M141.626,61.775h-3.988v2.074h1.826v1.654c-0.416,0.232-1.137,0.506-2.115,0.506
	c-1.914,0-3.168-1.383-3.168-3.285c0-1.898,1.254-3.279,3.168-3.279c1.137,0,1.871,0.328,2.477,0.961l1.584-1.727
	c-1.023-0.949-2.447-1.311-4.061-1.311c-3.182,0-5.5,2.088-5.5,5.355c0,3.271,2.318,5.357,5.5,5.357
	c1.496,0,2.953-0.287,4.277-0.979V61.775L141.626,61.775z"/>
<polygon fill="#FFFFFF" points="153.571,67.822 155.819,67.822 155.819,57.629 153.571,57.629 153.571,67.822 "/>
<path fill="#FFFFFF" d="M163.606,67.822h3.672c3.037,0,5.73-1.77,5.73-5.066c0-3.73-2.75-5.127-6.033-5.127h-3.369V67.822
	L163.606,67.822z M165.853,59.703h1.324c1.9,0,3.5,0.934,3.5,2.936c0,2.318-1.57,3.111-3.658,3.111h-1.166V59.703L165.853,59.703z"
	/>
<polygon fill="#FFFFFF" points="180.364,67.822 187.548,67.822 187.548,65.75 182.608,65.75 182.608,63.662 187.028,63.662 
	187.028,61.588 182.608,61.588 182.608,59.703 187.288,59.703 187.288,57.629 180.364,57.629 180.364,67.822 "/>
<path fill="#FFFFFF" d="M194.038,67.822h2.477l0.85-2.158h3.961l0.877,2.158h2.533l-4.434-10.193h-1.857L194.038,67.822
	L194.038,67.822z M200.562,63.762h-2.492l1.24-3.168L200.562,63.762L200.562,63.762z"/>
<path fill="#FFFFFF" d="M218.083,58.436c-0.865-0.762-1.975-1.066-3.127-1.066c-2.002,0-3.887,1.137-3.887,3.313
	c0,3.4,4.777,2.389,4.777,4.262c0,0.721-0.818,1.066-1.555,1.066c-0.746,0-1.496-0.359-1.957-0.967l-1.6,1.76
	c0.967,0.891,2.119,1.279,3.43,1.279c2.102,0,3.93-1.08,3.93-3.355c0-3.57-4.693-2.375-4.693-4.232c0-0.762,0.879-1.049,1.51-1.049
	c0.549,0,1.27,0.213,1.629,0.674L218.083,58.436L218.083,58.436z"/>
</svg>
